<svg data-v-0dd9719b="" version="1.0" xmlns="http://www.w3.org/2000/svg" xmlns:xlink="http://www.w3.org/1999/xlink" width="100%" height="100%" viewBox="0 0 340.000000 250.000000" preserveAspectRatio="xMidYMid meet" color-interpolation-filters="sRGB" style="margin: auto;"> <rect data-v-0dd9719b="" x="0" y="0" width="100%" height="100%" fill="#fff" fill-opacity="1" class="background"></rect> <rect data-v-0dd9719b="" x="0" y="0" width="100%" height="100%" fill="url(#watermark)" fill-opacity="1" class="watermarklayer"></rect> <g data-v-0dd9719b="" fill="#333" class="icon-text-wrapper icon-svg-group iconsvg" transform="translate(47.86000061035156,94.7537956237793)"><g class="iconsvg-imagesvg" transform="translate(0,0)"><g><rect fill="#333" fill-opacity="0" stroke-width="2" x="0" y="0" width="60" height="60.492408202770555" class="image-rect"></rect> <svg x="0" y="0" width="60" height="60.492408202770555" filtersec="colorsb5181574447" class="image-svg-svg primary" style="overflow: visible;"><svg xmlns="http://www.w3.org/2000/svg" viewBox="0 0.0200042724609375 159.61000061035156 160.9199981689453"><title>资源 120</title><path d="M159.56 80.51v74.79c0 5.66-.58 5.87-6.37 5.37a75 75 0 0 1-33.16-11c-12.41-7.59-21.39-18.15-27.67-31.13-5.22-10.79-7.21-22.21-7.12-34.19.2-26.45.06-52.89.07-79.33 0-5 .08-5 5.14-5h64c5.13 0 5.16 0 5.16 5.37z" fill="#4cb151"></path><path d="M73.69 112.19v44.06c0 4.47-.22 4.69-4.79 4.69H4.56c-4.3 0-4.55-.24-4.55-4.57Q0 80.5 0 4.62C0 .27.29-.15 4.53.07A70.12 70.12 0 0 1 47.3 17c14.68 12.49 23.54 28.4 26 47.67a67 67 0 0 1 .42 8c-.01 13.18-.03 26.33-.03 39.52z" fill="#1a99da"></path></svg></svg> <!----></g></g> <g transform="translate(67,21.686203956604004)"><g data-gra="path-name" fill-rule="" class="tp-name iconsvg-namesvg"><g transform="scale(1)"><g><path d="M2.51-18.93L9.49-18.93 15.57-8.19 17.02-18.93 21.98-18.93 19.65-1.81 13.85-1.81 8.04-12.28 6.59-1.81 1.36-1.81 3.69-17.78 2.51-18.93ZM26.15-18.93L42.69-18.93 42.42-16.03 32.84-16.03 32.26-12.28 41.24-12.28 40.97-9.37 31.66-9.37 31.08-4.72 41.24-4.72 40.97-1.81 24.7-1.81 27.03-17.78 26.15-18.93ZM48.02-18.08L47.14-18.93 53.22-18.93 55.85-14 59.32-18.35 58.75-18.93 65.7-18.93 58.18-10.52 63.38-1.81 57.57-1.81 54.97-7.05 50.62-1.81 44.81-1.81 52.37-10.52 48.02-18.08ZM78.13-1.81L72.33-1.81 74.35-16.03 67.97-16.03 68.27-18.93 86.84-18.93 86.27-16.03 80.16-16.03 78.13-1.81ZM90.71-18.93L110.18-18.93 108.13-3.84Q108.13-2.96 107.42-2.39 106.71-1.81 105.83-1.81L105.83-1.81 89.56-1.81 91.59-17.78 90.71-18.93ZM104.38-16.03L97.39-16.03 95.67-4.72 102.62-4.72 104.38-16.03ZM114.99-18.93L131.26-18.93Q131.68-18.93 132.04-18.78 132.41-18.63 132.66-18.35 132.92-18.08 133.01-17.72 133.1-17.36 132.98-16.9L132.98-16.9 130.96-1.81 114.69-1.81Q114.27-1.81 113.9-1.97 113.54-2.12 113.28-2.39 113.03-2.66 112.93-3.04 112.84-3.42 112.96-3.84L112.96-3.84 114.99-18.93ZM127.18-16.03L120.22-16.03 118.77-4.72 125.45-4.72 127.18-16.03ZM137.85-18.93L154.12-18.93Q154.54-18.93 154.9-18.78 155.27-18.63 155.52-18.35 155.78-18.08 155.87-17.72 155.96-17.36 155.84-16.9L155.84-16.9 153.81-1.81 137.55-1.81Q137.12-1.81 136.76-1.97 136.4-2.12 136.14-2.39 135.88-2.66 135.79-3.04 135.7-3.42 135.82-3.84L135.82-3.84 137.85-18.93ZM150.04-16.03L143.08-16.03 141.63-4.72 148.31-4.72 150.04-16.03ZM159.77-18.93L178.64-18.93 177.49-10.22Q177.49-9.8 177.29-9.42 177.1-9.04 176.76-8.77 176.43-8.5 176.02-8.35 175.62-8.19 175.16-8.19L175.16-8.19 171.38-8.19 177.49-1.81 171.11-1.81 165.3-8.19 164.43-1.81 158.62-1.81 160.65-17.78 159.77-18.93ZM172.56-16.03L166.18-16.03 165.58-11.1 171.99-11.1 172.56-16.03Z" transform="translate(-1.3600000143051147, 18.93000030517578)"></path></g> <!----> <!----> <!----> <!----> <!----> <!----> <!----></g></g> <!----></g></g></svg>